Coordinates
version=1
nRows=4
nColumns=124
inDegrees=yes

Units are S.I. units (second, meters, Newtons, ...)
If the header above contains a line with 'inDegrees', this indicates whether rotational values are in degrees (yes) or radians (no).

endheader 
time	pelvis_tilt	pelvis_list	pelvis_rotation	pelvis_tx	pelvis_ty	pelvis_tz	hip_flexion_l	hip_adduction_l	hip_rotation_l	hip_flexion_r	hip_adduction_r	hip_rotation_r	knee_angle_l	knee_angle_r	ankle_angle_l	ankle_angle_r	subtalar_angle_l	subtalar_angle_r	mtp_angle_l	mtp_angle_r	lumbar_extension	lumbar_bending	lumbar_rotation	arm_flex_l	arm_add_l	arm_rot_l	arm_flex_r	arm_add_r	arm_rot_r	elbow_flex_l	elbow_flex_r	glut_med1_l/activation	glut_med2_l/activation	glut_med3_l/activation	glut_min1_l/activation	glut_min2_l/activation	glut_min3_l/activation	semimem_l/activation	semiten_l/activation	bifemlh_l/activation	bifemsh_l/activation	sar_l/activation	add_long_l/activation	add_brev_l/activation	add_mag1_l/activation	add_mag2_l/activation	add_mag3_l/activation	tfl_l/activation	pect_l/activation	grac_l/activation	glut_max1_l/activation	glut_max2_l/activation	glut_max3_l/activation	iliacus_l/activation	psoas_l/activation	quad_fem_l/activation	gem_l/activation	peri_l/activation	rect_fem_l/activation	vas_med_l/activation	vas_int_l/activation	vas_lat_l/activation	med_gas_l/activation	lat_gas_l/activation	soleus_l/activation	tib_post_l/activation	flex_dig_l/activation	flex_hal_l/activation	tib_ant_l/activation	per_brev_l/activation	per_long_l/activation	per_tert_l/activation	ext_dig_l/activation	ext_hal_l/activation	ercspn_l/activation	intobl_l/activation	extobl_l/activation	glut_med1_r/activation	glut_med2_r/activation	glut_med3_r/activation	glut_min1_r/activation	glut_min2_r/activation	glut_min3_r/activation	semimem_r/activation	semiten_r/activation	bifemlh_r/activation	bifemsh_r/activation	sar_r/activation	add_long_r/activation	add_brev_r/activation	add_mag1_r/activation	add_mag2_r/activation	add_mag3_r/activation	tfl_r/activation	pect_r/activation	grac_r/activation	glut_max1_r/activation	glut_max2_r/activation	glut_max3_r/activation	iliacus_r/activation	psoas_r/activation	quad_fem_r/activation	gem_r/activation	peri_r/activation	rect_fem_r/activation	vas_med_r/activation	vas_int_r/activation	vas_lat_r/activation	med_gas_r/activation	lat_gas_r/activation	soleus_r/activation	tib_post_r/activation	flex_dig_r/activation	flex_hal_r/activation	tib_ant_r/activation	per_brev_r/activation	per_long_r/activation	per_tert_r/activation	ext_dig_r/activation	ext_hal_r/activation	ercspn_r/activation	intobl_r/activation	extobl_r/activation	
          0.78720756	         -7.37360816	         -1.71611441	        -13.66692147	          1.06279975	          0.91482648	         -0.01116067	         20.28246225	          0.09945703	          5.39394541	         -5.34403120	        -13.76991898	        -26.83284464	        -29.40010891	        -13.63538897	         15.28912320	         -0.13842697	         -8.58249163	        -12.88924325	          6.13438670	          3.31041139	          1.44687379	          4.07124794	          4.75772757	        -14.69955599	        -13.47450994	         19.28839208	          8.56468390	        -13.47872076	         13.53770456	         15.39046184	         30.14789561	          0.66931150	          0.44727238	          0.20981014	          0.33552576	          0.21716913	          0.11031882	          0.12843649	          0.14795050	          0.11100531	          0.05001098	          0.05001423	          0.05003018	          0.22359633	          0.26261356	          0.25624891	          0.16365248	          0.05001527	          0.05009525	          0.08143264	          0.25742678	          0.17973013	          0.14523024	          0.05000396	          0.05000401	          0.05002559	          0.05003436	          0.05003233	          0.05000769	          0.20950614	          0.21880037	          0.17589933	          0.33336015	          0.19224867	          0.11015277	          0.42715943	          0.16527917	          0.16298132	          0.08702187	          0.05035358	          0.11417890	          0.05016601	          0.05926659	          0.06406452	          0.07422164	          0.05000611	          0.05000630	          0.05001414	          0.08649001	          0.08506428	          0.08682075	          0.14953005	          0.05014226	          0.05000243	          0.05000277	          0.05000177	          0.05000568	          0.31911458	          0.07995449	          0.05002080	          0.05002105	          0.05001472	          0.05000592	          0.56341932	          0.15777931	          0.05001584	          0.05011625	          0.05005869	          0.05000793	          0.25829856	          0.36820129	          0.38602849	          0.05127724	          0.05056229	          0.05823300	          0.11743543	          0.10928206	          0.09059957	          0.05056872	          0.05056866	          0.05056890	          0.05056676	          0.05056819	          0.05056853	          0.05056929	          0.05056917	          0.05056886	          0.05056884	          0.05056897	          0.05056891	          0.11169970	          0.05000683	          0.05000826	
          0.83094132	         -7.28727475	         -1.92485579	        -11.68544286	          1.11584418	          0.91994321	         -0.01731561	         15.89379729	          1.19545853	          7.50609429	         -0.26912330	        -14.27348959	        -25.64887164	        -27.36383171	         -6.55760026	         14.64133407	         -0.13691828	         -7.21646319	        -13.13832881	          9.53700878	          1.84042985	          0.67912225	          4.05829873	          4.04973847	        -12.89707083	        -13.47284913	         19.04650207	          4.40961048	        -13.52372356	         11.87928648	         14.52650464	         22.86434520	          0.44796647	          0.25874778	          0.12143631	          0.19410147	          0.12565205	          0.06389947	          0.11575532	          0.11903568	          0.09541111	          0.05001657	          0.05002201	          0.05002709	          0.12944796	          0.18314845	          0.18259203	          0.13694410	          0.05002018	          0.05010123	          0.05017718	          0.20081722	          0.17546482	          0.13132450	          0.05000517	          0.05000522	          0.05009273	          0.05011367	          0.05006630	          0.05000885	          0.18212306	          0.18604392	          0.14944142	          0.40579285	          0.30149712	          0.12097760	          0.44726711	          0.19482874	          0.18549577	          0.05033869	          0.05616201	          0.14735399	          0.05011132	          0.05002075	          0.05005798	          0.06327409	          0.05005516	          0.05000539	          0.05000585	          0.05002851	          0.05001067	          0.05022660	          0.08649304	          0.05004542	          0.05000130	          0.05000242	          0.05000146	          0.05000519	          0.24843142	          0.20411008	          0.05029712	          0.05005878	          0.05002507	          0.05000670	          0.45391879	          0.37898616	          0.05001820	          0.05009461	          0.05004863	          0.05000653	          0.15431306	          0.22614758	          0.32369594	          0.05080839	          0.05053311	          0.07209927	          0.17663413	          0.17594628	          0.14552536	          0.05056870	          0.05056861	          0.05056883	          0.05056635	          0.05056792	          0.05056833	          0.05056923	          0.05056939	          0.05056909	          0.05056896	          0.05056903	          0.05056888	          0.11676798	          0.05000416	          0.05000961	
          0.87467507	         -7.13691594	         -1.89923903	         -9.38739871	          1.16689904	          0.92056956	         -0.02247918	         12.02008228	          2.38556360	          9.73288527	          5.77872271	        -14.21461968	        -24.09447600	        -26.22970464	          0.10983540	         14.27348270	         -0.12265624	         -6.81597578	        -12.26158233	         13.16878821	          1.02198158	         -0.15188417	          3.79797387	          3.22941492	        -10.91481645	        -13.48517282	         15.12530569	          0.46563035	        -13.54872264	         12.99313933	         16.25549009	         15.13188450	          0.28821787	          0.14967494	          0.07026607	          0.11230931	          0.07272807	          0.05012696	          0.07926249	          0.07824297	          0.05556457	          0.05002681	          0.05003079	          0.05006309	          0.16041373	          0.18521291	          0.16232118	          0.10226224	          0.05004071	          0.05018102	          0.05133728	          0.11623471	          0.11642292	          0.10524122	          0.05000858	          0.05000937	          0.05012042	          0.05013854	          0.05005234	          0.05004133	          0.18263879	          0.19018757	          0.15620015	          0.46371883	          0.38548386	          0.09422108	          0.48897951	          0.22582353	          0.19739532	          0.05001888	          0.10245520	          0.16401292	          0.05012445	          0.05006341	          0.05011781	          0.05126611	          0.05111480	          0.05000466	          0.05000533	          0.05000536	          0.05000654	          0.05002181	          0.05003703	          0.05001687	          0.05000117	          0.05000306	          0.05000149	          0.05000590	          0.17604068	          0.16853183	          0.32280900	          0.07563468	          0.05003705	          0.05000659	          0.37656725	          0.33753102	          0.05002236	          0.05004825	          0.05001368	          0.05000514	          0.11268636	          0.15982330	          0.25267675	          0.05072895	          0.05036094	          0.07281684	          0.14991004	          0.16428365	          0.12792027	          0.05056858	          0.05056851	          0.05056897	          0.05056675	          0.05056835	          0.05056865	          0.05056935	          0.05056893	          0.05056870	          0.05056874	          0.05056892	          0.05056889	          0.12166067	          0.05000359	          0.05000829	
          0.91840882	         -6.93230406	         -1.60504030	         -6.94278438	          1.21767672	          0.91632883	         -0.02623091	          8.28084159	          3.62019416	         11.94959475	         12.25796680	        -13.41615085	        -22.59223167	        -25.66929458	          5.16878407	         14.78419268	         -0.12273478	         -6.81681222	        -11.00437899	         16.38246577	          0.59510887	         -0.93917590	          3.32247195	          2.31592126	        -11.03937655	        -13.61738279	          6.24315182	         -4.08362696	        -13.47907419	         16.53818249	         25.98150157	          9.26413849	          0.30683166	          0.08658188	          0.05001940	          0.06502057	          0.05008546	          0.05005905	          0.05456474	          0.08146918	          0.06149676	          0.05005127	          0.05004713	          0.05109865	          0.16854077	          0.10781157	          0.09403183	          0.10081322	          0.05002647	          0.05037828	          0.05077438	          0.06726386	          0.06736731	          0.07060233	          0.05001155	          0.05000984	          0.05004639	          0.05012869	          0.05002677	          0.19126760	          0.17921893	          0.20328529	          0.16966842	          0.55725506	          0.51050695	          0.05459570	          0.56404495	          0.31974958	          0.27882860	          0.07647016	          0.19433824	          0.17278225	          0.07516399	          0.12418717	          0.05154170	          0.05000654	          0.05001362	          0.05000679	          0.05000509	          0.05000514	          0.05000542	          0.05002357	          0.05001520	          0.05001529	          0.05000204	          0.05000538	          0.05000238	          0.05007768	          0.19419724	          0.14308617	          0.28018653	          0.25436649	          0.05003690	          0.05000676	          0.23362263	          0.36627633	          0.05025470	          0.05007039	          0.05001941	          0.05000469	          0.10196997	          0.10514578	          0.21035601	          0.05070268	          0.05040028	          0.05002018	          0.08673864	          0.09504964	          0.07401494	          0.05056809	          0.05056800	          0.05056873	          0.05056667	          0.05056810	          0.05056840	          0.05056915	          0.05056883	          0.05056857	          0.05056860	          0.05056876	          0.05056870	          0.10182189	          0.05000841	          0.05004173	
